<svg width="24" height="24" viewBox="0 0 24 24" fill="none" xmlns="http://www.w3.org/2000/svg">
    <path opacity="0.1" fill-rule="evenodd" clip-rule="evenodd" d="M0 12C0 5.37258 5.37258 0 12 0C18.6274 0 24 5.37258 24 12C24 18.6274 18.6274 24 12 24C5.37258 24 0 18.6274 0 12Z" fill="white"/>
    <path d="M13.9943 7.26416C14.037 7.02895 14.0798 6.9819 14.3149 7.00543C14.8065 7.07599 15.2768 7.21711 15.7043 7.45232C16.0677 7.64049 16.4097 7.8757 16.7517 8.08739C16.944 8.20499 17.0509 8.36964 17.1578 8.55781C17.7777 9.82794 18.1838 11.1686 18.4189 12.5799C18.5472 13.4031 18.6327 14.2499 18.7395 15.0731C18.7609 15.2142 18.7182 15.3318 18.6327 15.4259C17.7777 16.4138 16.7303 16.9313 15.5333 17.1194C15.4264 17.143 15.2982 17.143 15.1913 17.1665C15.0417 17.2135 14.9562 17.143 14.8707 17.0018C14.7852 16.8372 14.6783 16.6961 14.5714 16.5549C14.5714 16.5314 14.5714 16.5314 14.55 16.4844C15.4264 16.1315 16.2173 15.5906 16.8372 14.8144C16.7944 14.8379 16.7517 14.8614 16.7089 14.8849C15.6615 15.6611 14.4859 16.0845 13.2462 16.1786C12.2415 16.2727 11.2369 16.2256 10.2536 15.9434C9.42001 15.7082 8.65051 15.3318 7.96651 14.7909C7.90238 14.7909 7.88101 14.7673 7.88101 14.7673L7.85963 14.7909C8.03063 14.9555 8.20163 15.1437 8.37263 15.3083C8.56501 15.473 8.75739 15.6376 8.94976 15.7787C9.14214 15.9199 9.35589 16.0375 9.56964 16.1551C9.78339 16.2727 9.99714 16.3668 10.2536 16.4844C10.104 16.7196 9.95439 16.9313 9.80476 17.1194C9.78339 17.143 9.74064 17.1665 9.69789 17.1665C8.32988 17.0489 7.1115 16.5079 6.14963 15.4024C6.02138 15.3318 6 15.2142 6 15.0966C6.14963 13.0268 6.513 11.004 7.32526 9.09879C7.41076 8.8871 7.51763 8.67541 7.60313 8.48724C7.73138 8.18147 8.00926 8.04035 8.24438 7.89922C8.88564 7.45232 9.59101 7.17007 10.3605 7.02895C10.6384 6.9819 10.6811 7.00543 10.7453 7.28768C10.446 7.40528 10.1254 7.49936 9.82614 7.64049C9.52689 7.78162 9.24901 7.94626 8.97114 8.13443C8.69326 8.3226 8.43676 8.55781 8.20163 8.79302C11.0018 7.24063 13.7805 7.24063 16.5593 8.81654C16.4952 8.62837 15.8967 8.13443 15.3837 7.8757C14.9348 7.64049 14.4645 7.45232 13.9943 7.26416ZM9.48414 12.7916C9.48414 13.0738 9.56964 13.3561 9.76201 13.6148C10.0826 14.0852 10.7239 14.1323 11.1086 13.7324C11.5361 13.2855 11.6216 12.5328 11.3224 11.9919C10.959 11.3568 10.2536 11.2627 9.80476 11.8037C9.56964 12.0624 9.48414 12.3682 9.48414 12.7916ZM15.2768 12.6975C15.2768 12.4152 15.1913 12.133 15.0203 11.8743C14.6997 11.3803 14.0798 11.2862 13.6737 11.6626C13.182 12.133 13.0965 12.9327 13.4813 13.5207C13.8233 14.0382 14.4432 14.1323 14.8707 13.7089C15.1485 13.4737 15.2768 13.1209 15.2768 12.6975Z" fill="white"/>
    </svg>
    