<svg width="53" height="24" viewBox="0 0 53 24" fill="none" xmlns="http://www.w3.org/2000/svg">
    <path d="M8.24916 7.1737C8.29191 6.93849 8.33466 6.89145 8.56979 6.91497C9.06142 6.98553 9.53167 7.12666 9.95917 7.36187C10.3225 7.55004 10.6645 7.78525 11.0065 7.99693C11.1989 8.11454 11.3058 8.27919 11.4127 8.46735C12.0326 9.73748 12.4387 11.0782 12.6738 12.4894C12.8021 13.3127 12.8876 14.1594 12.9944 14.9827C13.0158 15.1238 12.9731 15.2414 12.8876 15.3355C12.0326 16.3233 10.9852 16.8408 9.78817 17.029C9.68129 17.0525 9.55304 17.0525 9.44617 17.076C9.29654 17.1231 9.21104 17.0525 9.12554 16.9114C9.04004 16.7467 8.93317 16.6056 8.82629 16.4645C8.82629 16.441 8.82629 16.441 8.80492 16.3939C9.68129 16.0411 10.4722 15.5001 11.092 14.7239C11.0493 14.7474 11.0065 14.771 10.9638 14.7945C9.91642 15.5707 8.74079 15.9941 7.50104 16.0881C6.49641 16.1822 5.49178 16.1352 4.50852 15.8529C3.6749 15.6177 2.90539 15.2414 2.22139 14.7004C2.15727 14.7004 2.13589 14.6769 2.13589 14.6769L2.11451 14.7004C2.28552 14.865 2.45652 15.0532 2.62752 15.2179C2.81989 15.3825 3.01227 15.5472 3.20464 15.6883C3.39702 15.8294 3.61077 15.947 3.82452 16.0646C4.03827 16.1822 4.25202 16.2763 4.50852 16.3939C4.3589 16.6291 4.20927 16.8408 4.05965 17.029C4.03827 17.0525 3.99552 17.076 3.95277 17.076C2.58477 16.9584 1.36639 16.4174 0.404508 15.3119C0.276258 15.2414 0.254883 15.1238 0.254883 15.0062C0.404508 12.9363 0.767885 10.9135 1.58014 9.00833C1.66564 8.79665 1.77251 8.58496 1.85801 8.39679C1.98626 8.09102 2.26414 7.94989 2.49927 7.80877C3.14052 7.36187 3.8459 7.07962 4.6154 6.93849C4.89328 6.89145 4.93603 6.91497 5.00015 7.19722C4.7009 7.31483 4.38027 7.40891 4.08102 7.55004C3.78177 7.69116 3.50389 7.85581 3.22602 8.04398C2.94814 8.23214 2.69164 8.46735 2.45652 8.70256C5.25665 7.15018 8.03541 7.15018 10.8142 8.72608C10.75 8.53792 10.1515 8.04398 9.63854 7.78525C9.18967 7.55004 8.71942 7.36187 8.24916 7.1737ZM3.73902 12.7011C3.73902 12.9834 3.82452 13.2656 4.0169 13.5244C4.33752 13.9948 4.97878 14.0418 5.36353 13.642C5.79103 13.1951 5.87653 12.4424 5.57728 11.9014C5.2139 11.2663 4.50852 11.1723 4.05965 11.7132C3.82452 11.972 3.73902 12.2777 3.73902 12.7011ZM9.53167 12.607C9.53167 12.3248 9.44617 12.0425 9.27517 11.7838C8.95454 11.2899 8.33466 11.1958 7.92854 11.5721C7.43691 12.0425 7.35141 12.8422 7.73616 13.4303C8.07816 13.9477 8.69804 14.0418 9.12554 13.6184C9.40342 13.3832 9.53167 13.0304 9.53167 12.607Z" fill="white"/>
    </svg>
    