<svg width="24" height="24" viewBox="0 0 24 24" fill="none" xmlns="http://www.w3.org/2000/svg">
    <path d="M17.8372 12.1666C17.8257 15.3304 15.161 17.9849 11.997 17.9835C8.80641 17.9821 6.13171 15.3297 6.1532 12.1365C6.1747 8.90095 8.70681 6.30953 12.0271 6.29376C15.2262 6.27872 17.8486 8.97045 17.8372 12.1666Z" fill="#F2F2F2"/>
    <path d="M18.319 6.45075C17.7343 6.43857 17.3747 5.81024 17.6519 5.28436C17.7544 5.09091 17.9135 4.94547 18.0661 4.79358C18.4809 4.3809 18.885 3.95676 19.3135 3.55913C19.6933 3.20663 20.1676 3.20305 20.4742 3.51256C20.806 3.84857 20.7938 4.30926 20.4212 4.69256C19.939 5.18907 19.4439 5.67339 18.9538 6.16273C18.7776 6.33898 18.5741 6.45146 18.319 6.45075Z" fill="#F2F2F2"/>
    <path d="M4.0544 20.709C3.46974 20.6961 3.11077 20.0671 3.38877 19.5412C3.49123 19.3477 3.65101 19.2023 3.80291 19.0504C4.21776 18.6377 4.62187 18.2136 5.05034 17.816C5.43008 17.4642 5.90512 17.4606 6.21107 17.7708C6.54281 18.1076 6.52919 18.5675 6.15661 18.9508C5.67369 19.4473 5.1793 19.9317 4.68922 20.421C4.51368 20.598 4.30947 20.7104 4.0544 20.709Z" fill="#F2F2F2"/>
    <path d="M4.08256 3.28723C4.30754 3.30228 4.52392 3.3904 4.70018 3.56665C5.19027 4.05527 5.68752 4.53745 6.16614 5.03754C6.53944 5.42801 6.54732 5.90445 6.2163 6.21826C5.87309 6.54425 5.42671 6.52992 5.03407 6.15235C4.53539 5.67304 4.04817 5.18011 3.56525 4.68432C3.31376 4.4264 3.21488 4.11546 3.36104 3.76511C3.48858 3.4599 3.73506 3.31302 4.08256 3.28723Z" fill="#F2F2F2"/>
    <path d="M20.7092 19.9027C20.7063 20.4709 20.1532 20.847 19.6495 20.6514C19.5026 20.5948 19.3758 20.5067 19.2647 20.3956C18.7926 19.9228 18.3139 19.4557 17.8489 18.9763C17.4699 18.5852 17.4541 18.0929 17.7909 17.7634C18.1083 17.4532 18.5962 17.4818 18.9774 17.8522C19.4568 18.3179 19.9253 18.7951 20.3961 19.2687C20.5788 19.4521 20.697 19.6677 20.7092 19.9027Z" fill="#F2F2F2"/>
    <path d="M12.7641 1.93804C12.7641 2.30773 12.7734 2.67814 12.7612 3.04711C12.7469 3.50206 12.4367 3.79581 11.9802 3.80727C11.5761 3.8173 11.2422 3.53932 11.2286 3.103C11.2036 2.31633 11.2057 1.52822 11.2272 0.741552C11.2387 0.321708 11.612 -0.002847 12.0053 1.88324e-05C12.4238 0.00288466 12.7505 0.336754 12.7627 0.792421C12.7727 1.17429 12.7648 1.55616 12.7641 1.93804Z" fill="#F2F2F2"/>
    <path d="M12.7648 22.0963C12.7641 22.466 12.772 22.8357 12.7627 23.2047C12.7519 23.6389 12.4166 23.9813 12.0017 23.9985C11.6206 24.0143 11.2408 23.6833 11.2279 23.2606C11.205 22.4868 11.205 21.7109 11.2258 20.9371C11.238 20.4943 11.6227 20.1605 12.0254 20.1827C12.4646 20.207 12.7498 20.5173 12.7648 20.988C12.7655 21.0116 12.7655 21.036 12.7655 21.0596C12.7648 21.405 12.7648 21.7503 12.7648 22.0963Z" fill="#F2F2F2"/>
    <path d="M22.1027 12.7632C21.7215 12.7632 21.3404 12.771 20.9592 12.761C20.5393 12.7496 20.2018 12.4214 20.1825 12.0238C20.1631 11.6297 20.4777 11.2436 20.899 11.2299C21.6843 11.2042 22.4717 11.2042 23.257 11.2278C23.6883 11.2407 24.0165 11.6355 23.9993 12.0403C23.9828 12.4264 23.6339 12.7524 23.2111 12.7617C22.8414 12.7696 22.4717 12.7632 22.1027 12.7632Z" fill="#F2F2F2"/>
    <path d="M1.92149 12.7656C1.55106 12.7656 1.18134 12.772 0.810911 12.7634C0.348052 12.7527 0.0170292 12.4446 0.000549657 12.024C-0.0159298 11.6121 0.340171 11.2324 0.796581 11.2223C1.53673 11.2066 2.27687 11.2058 3.01702 11.223C3.46196 11.2331 3.80588 11.5935 3.80445 11.994C3.8023 12.446 3.48346 12.7548 2.99624 12.7641C2.63799 12.7713 2.27974 12.7656 1.92149 12.7656Z" fill="#F2F2F2"/>
    </svg>
    