<svg width="21" height="22" viewBox="0 0 21 22" fill="none" xmlns="http://www.w3.org/2000/svg">
    <path d="M10.7192 21.9997C5.64818 21.994 0.941153 17.9034 0.124746 12.474C-0.703114 6.97207 2.66232 1.67712 8.0565 0.0824363C8.37553 -0.0120874 8.67576 -0.0927584 8.89172 0.243778C9.11177 0.586019 8.88517 0.836181 8.68066 1.07493C7.47487 2.47975 6.68873 4.08584 6.39014 5.91031C5.87396 9.07033 6.69364 11.8669 8.84427 14.2349C10.8411 16.4334 13.3705 17.5294 16.3498 17.5367C17.3176 17.5392 18.2763 17.3868 19.2048 17.0902C19.4003 17.0282 19.6032 16.9834 19.8003 17.0918C20.1145 17.2662 20.1464 17.6255 19.8609 17.9637C18.7827 19.2365 17.5049 20.2567 15.9801 20.951C14.4487 21.6493 12.8396 22.0119 10.7192 21.9997Z" fill="black"/>
    </svg>
    